<?xml version="1.0" encoding="UTF-8" standalone="no"?>
<!-- Created with Inkscape (http://www.inkscape.org/) -->

<svg
   xmlns:dc="http://purl.org/dc/elements/1.1/"
   xmlns:cc="http://creativecommons.org/ns#"
   xmlns:rdf="http://www.w3.org/1999/02/22-rdf-syntax-ns#"
   xmlns:svg="http://www.w3.org/2000/svg"
   xmlns="http://www.w3.org/2000/svg"
   xmlns:sodipodi="http://sodipodi.sourceforge.net/DTD/sodipodi-0.dtd"
   xmlns:inkscape="http://www.inkscape.org/namespaces/inkscape"
   width="70.722649mm"
   height="61.807518mm"
   viewBox="0 0 70.722649 61.807518"
   version="1.1"
   id="svg8"
   inkscape:version="0.92.3 (2405546, 2018-03-11)"
   sodipodi:docname="logo.svg">
  <defs
     id="defs2" />
  <sodipodi:namedview
     id="base"
     pagecolor="#ffffff"
     bordercolor="#666666"
     borderopacity="1.0"
     inkscape:pageopacity="0.0"
     inkscape:pageshadow="2"
     inkscape:zoom="0.7"
     inkscape:cx="-366.4726"
     inkscape:cy="55.548688"
     inkscape:document-units="mm"
     inkscape:current-layer="layer1"
     showgrid="false"
     inkscape:pagecheckerboard="true"
     inkscape:window-width="1680"
     inkscape:window-height="1025"
     inkscape:window-x="0"
     inkscape:window-y="0"
     inkscape:window-maximized="1"
     fit-margin-top="0"
     fit-margin-left="0"
     fit-margin-right="0"
     fit-margin-bottom="0" />
  <metadata
     id="metadata5">
    <rdf:RDF>
      <cc:Work
         rdf:about="">
        <dc:format>image/svg+xml</dc:format>
        <dc:type
           rdf:resource="http://purl.org/dc/dcmitype/StillImage" />
        <dc:title></dc:title>
      </cc:Work>
    </rdf:RDF>
  </metadata>
  <g
     inkscape:label="Vrstva 1"
     inkscape:groupmode="layer"
     id="layer1"
     transform="translate(-168.84654,-21.935435)">
    <text
       xml:space="preserve"
       style="font-style:normal;font-weight:normal;font-size:10.58333302px;line-height:1.25;font-family:sans-serif;letter-spacing:0px;word-spacing:0px;fill:#000000;fill-opacity:1;stroke:none;stroke-width:0.26458332"
       x="269.62216"
       y="194.80943"
       id="text8928"><tspan
         sodipodi:role="line"
         id="tspan8926"
         x="269.62216"
         y="204.1732"
         style="font-style:normal;font-variant:normal;font-weight:bold;font-stretch:normal;font-size:25.39999962px;line-height:3.25;font-family:sans-serif;-inkscape-font-specification:'sans-serif Bold';stroke-width:0.26458332" /></text>
    <g
       id="g9038"
       transform="translate(145.41404)">
      <path
         inkscape:connector-curvature="0"
         id="path8455"
         d="m 48.236849,22.685435 a 12.294398,12.160764 0 0 0 -10.916129,6.589777 12.294398,12.160764 0 0 0 -0.843878,-0.04186 12.294398,12.160764 0 0 0 -12.294339,12.161014 12.294398,12.160764 0 0 0 2.755388,7.662582 12.294398,12.160764 0 0 0 -2.087211,6.77013 12.294398,12.160764 0 0 0 10.785904,12.058178 l -9.850561,15.20321 20.109366,-11.253578 a 12.294398,12.160764 0 0 0 6.350516,1.765268 12.294398,12.160764 0 0 0 9.454722,-4.39353 12.294398,12.160764 0 0 0 7.650694,2.656168 A 12.294398,12.160764 0 0 0 81.619306,60.218545 12.294398,12.160764 0 0 0 93.40515,48.076133 12.294398,12.160764 0 0 0 86.846377,37.328467 12.294398,12.160764 0 0 0 86.857227,37.118145 12.294398,12.160764 0 0 0 74.562887,24.95713 12.294398,12.160764 0 0 0 68.885714,26.336892 12.294398,12.160764 0 0 0 61.867538,24.15563 12.294398,12.160764 0 0 0 56.163492,25.550892 12.294398,12.160764 0 0 0 48.236845,22.685435 Z"
         style="opacity:1;fill:#ffffff;fill-opacity:1;stroke:#000000;stroke-width:1.5;stroke-miterlimit:4;stroke-dasharray:none;stroke-opacity:1" />
      <text
         id="text9014"
         y="56.623154"
         x="40.535923"
         style="font-style:normal;font-weight:normal;font-size:10.58333302px;line-height:1.25;font-family:sans-serif;letter-spacing:0px;word-spacing:0px;fill:#000000;fill-opacity:1;stroke:none;stroke-width:0.26458332"
         xml:space="preserve"><tspan
           style="font-size:25.39999962px;stroke-width:0.26458332"
           y="56.623154"
           x="40.535923"
           id="tspan9012"
           sodipodi:role="line">xD</tspan></text>
    </g>
  </g>
</svg>
